# Blender 4.0.1
# www.blender.org
mtllib 5_arrows.mtl
o Arrow.004
v 2.030500 0.211344 -3.058259
v 2.030500 -0.070711 -2.956320
v 0.677928 0.848528 -2.956320
v 0.677928 -0.707895 -3.058259
v 2.030500 0.211344 -2.956320
v 0.677928 0.848528 -3.058259
v 0.677928 -0.707895 -2.956320
v 2.238588 0.070711 -2.956320
v 2.238588 0.069922 -3.058259
v 0.886016 0.989949 -2.956320
v 0.886016 -0.849316 -3.058259
v 2.238588 0.070711 -3.058259
v 2.238588 0.069922 -2.956320
v 0.886016 0.989949 -3.058259
v 0.886016 -0.849316 -2.956320
v 1.822992 0.070317 -2.956320
v 1.822992 0.070317 -3.058259
v 2.238008 0.070317 -3.058259
v 2.238008 0.070317 -2.956320
v 3.591160 0.211344 -3.058259
v 3.591160 -0.070711 -2.956320
v 2.238588 0.848528 -2.956320
v 2.238588 -0.707895 -3.058259
v 3.591160 0.211344 -2.956320
v 2.238588 0.848528 -3.058259
v 2.238588 -0.707895 -2.956320
v 3.799248 0.070711 -2.956320
v 3.799248 0.069922 -3.058259
v 2.446676 0.989949 -2.956320
v 2.446676 -0.849316 -3.058259
v 3.799248 0.070711 -3.058259
v 3.799248 0.069922 -2.956320
v 2.446676 0.989949 -3.058259
v 2.446676 -0.849316 -2.956320
v 3.383652 0.070317 -2.956320
v 3.383652 0.070317 -3.058259
v 3.798668 0.070317 -3.058259
v 3.798668 0.070317 -2.956320
v 5.151820 0.211344 -3.058259
v 5.151820 -0.070711 -2.956320
v 3.799248 0.848528 -2.956320
v 3.799248 -0.707895 -3.058259
v 5.151820 0.211344 -2.956320
v 3.799248 0.848528 -3.058259
v 3.799248 -0.707895 -2.956320
v 5.359908 0.070711 -2.956320
v 5.359908 0.069922 -3.058259
v 4.007336 0.989949 -2.956320
v 4.007336 -0.849316 -3.058259
v 5.359908 0.070711 -3.058259
v 5.359908 0.069922 -2.956320
v 4.007336 0.989949 -3.058259
v 4.007336 -0.849316 -2.956320
v 4.944312 0.070317 -2.956320
v 4.944312 0.070317 -3.058259
v 5.359328 0.070317 -3.058259
v 5.359328 0.070317 -2.956320
v 6.712480 0.211344 -3.058259
v 6.712480 -0.070711 -2.956320
v 5.359908 0.848528 -2.956320
v 5.359908 -0.707895 -3.058259
v 6.712480 0.211344 -2.956320
v 5.359908 0.848528 -3.058259
v 5.359908 -0.707895 -2.956320
v 6.920568 0.070711 -2.956320
v 6.920568 0.069922 -3.058259
v 5.567996 0.989949 -2.956320
v 5.567996 -0.849316 -3.058259
v 6.920568 0.070711 -3.058259
v 6.920568 0.069922 -2.956320
v 5.567996 0.989949 -3.058259
v 5.567996 -0.849316 -2.956320
v 6.504972 0.070317 -2.956320
v 6.504972 0.070317 -3.058259
v 6.919988 0.070317 -3.058259
v 6.919988 0.070317 -2.956320
v 8.273140 0.211344 -3.058259
v 8.273140 -0.070711 -2.956320
v 6.920568 0.848528 -2.956320
v 6.920568 -0.707895 -3.058259
v 8.273140 0.211344 -2.956320
v 6.920568 0.848528 -3.058259
v 6.920568 -0.707895 -2.956320
v 8.481228 0.070711 -2.956320
v 8.481228 0.069922 -3.058259
v 7.128656 0.989949 -2.956320
v 7.128656 -0.849316 -3.058259
v 8.481228 0.070711 -3.058259
v 8.481228 0.069922 -2.956320
v 7.128656 0.989949 -3.058259
v 7.128656 -0.849316 -2.956320
v 8.065632 0.070317 -2.956320
v 8.065632 0.070317 -3.058259
v 8.480648 0.070317 -3.058259
v 8.480648 0.070317 -2.956320
vn -0.5621 -0.8271 -0.0000
vn -0.0000 -0.0000 -1.0000
vn 0.5621 0.8271 -0.0000
vn -0.0000 -0.0000 1.0000
vn 0.5621 -0.8271 -0.0000
vn -0.5621 0.8271 -0.0000
vt 0.413354 0.000000
vt 0.625000 0.000000
vt 0.625000 0.250000
vt 0.413354 0.250000
vt 0.625000 0.500000
vt 0.375000 0.500000
vt 0.375000 0.499303
vt 0.413354 0.499303
vt 0.375000 0.750697
vt 0.375000 0.750000
vt 0.625000 0.750000
vt 0.625000 1.000000
vt 0.413354 1.000000
vt 0.413354 0.750697
vt 0.375000 1.000000
vt 0.374303 0.500000
vt 0.374303 0.750000
vt 0.875000 0.500000
vt 0.875000 0.750000
vt 0.375000 0.000000
vt 0.375000 0.250000
vt 0.375000 0.499303
vt 0.413354 0.499303
vt 0.125000 0.500000
vt 0.125000 0.750000
s 0
usemtl Material.004
f 16/1/1 3/2/1 6/3/1 17/4/1
f 6/3/2 14/5/2 12/6/2 18/7/2 1/8/2 17/4/2
f 12/6/3 14/5/3 10/11/3 8/10/3
f 8/10/4 10/11/4 3/12/4 16/13/4 5/14/4 19/9/4
f 16/13/4 2/15/4 19/9/4 5/14/4
f 18/16/5 12/6/5 8/10/5 19/17/5
f 14/5/6 6/18/6 3/19/6 10/11/6
f 35/1/1 22/2/1 25/3/1 36/4/1
f 25/3/2 33/5/2 31/6/2 37/7/2 20/8/2 36/4/2
f 31/6/3 33/5/3 29/11/3 27/10/3
f 27/10/4 29/11/4 22/12/4 35/13/4 24/14/4 38/9/4
f 35/13/4 21/15/4 38/9/4 24/14/4
f 37/16/5 31/6/5 27/10/5 38/17/5
f 33/5/6 25/18/6 22/19/6 29/11/6
f 54/1/1 41/2/1 44/3/1 55/4/1
f 44/3/2 52/5/2 50/6/2 56/7/2 39/8/2 55/4/2
f 50/6/3 52/5/3 48/11/3 46/10/3
f 46/10/4 48/11/4 41/12/4 54/13/4 43/14/4 57/9/4
f 54/13/4 40/15/4 57/9/4 43/14/4
f 56/16/5 50/6/5 46/10/5 57/17/5
f 52/5/6 44/18/6 41/19/6 48/11/6
f 73/1/1 60/2/1 63/3/1 74/4/1
f 63/3/2 71/5/2 69/6/2 75/7/2 58/8/2 74/4/2
f 69/6/3 71/5/3 67/11/3 65/10/3
f 65/10/4 67/11/4 60/12/4 73/13/4 62/14/4 76/9/4
f 73/13/4 59/15/4 76/9/4 62/14/4
f 75/16/5 69/6/5 65/10/5 76/17/5
f 71/5/6 63/18/6 60/19/6 67/11/6
f 92/1/1 79/2/1 82/3/1 93/4/1
f 82/3/2 90/5/2 88/6/2 94/7/2 77/8/2 93/4/2
f 88/6/3 90/5/3 86/11/3 84/10/3
f 84/10/4 86/11/4 79/12/4 92/13/4 81/14/4 95/9/4
f 92/13/4 78/15/4 95/9/4 81/14/4
f 94/16/5 88/6/5 84/10/5 95/17/5
f 90/5/6 82/18/6 79/19/6 86/11/6
usemtl 
f 18/9/2 9/10/2 11/11/2 4/12/2 17/4/2 1/8/2
f 4/20/6 7/21/6 16/21/6 17/20/6
f 13/6/4 19/22/4 2/23/4 16/4/4 7/3/4 15/5/4
f 13/6/5 15/6/5 11/10/5 9/10/5
f 19/24/3 13/24/3 9/25/3 18/25/3
f 15/5/1 7/5/1 4/11/1 11/11/1
f 37/9/2 28/10/2 30/11/2 23/12/2 36/4/2 20/8/2
f 23/20/6 26/21/6 35/21/6 36/20/6
f 32/6/4 38/22/4 21/23/4 35/4/4 26/3/4 34/5/4
f 32/6/5 34/6/5 30/10/5 28/10/5
f 38/24/3 32/24/3 28/25/3 37/25/3
f 34/5/1 26/5/1 23/11/1 30/11/1
f 56/9/2 47/10/2 49/11/2 42/12/2 55/4/2 39/8/2
f 42/20/6 45/21/6 54/21/6 55/20/6
f 51/6/4 57/22/4 40/23/4 54/4/4 45/3/4 53/5/4
f 51/6/5 53/6/5 49/10/5 47/10/5
f 57/24/3 51/24/3 47/25/3 56/25/3
f 53/5/1 45/5/1 42/11/1 49/11/1
f 75/9/2 66/10/2 68/11/2 61/12/2 74/4/2 58/8/2
f 61/20/6 64/21/6 73/21/6 74/20/6
f 70/6/4 76/22/4 59/23/4 73/4/4 64/3/4 72/5/4
f 70/6/5 72/6/5 68/10/5 66/10/5
f 76/24/3 70/24/3 66/25/3 75/25/3
f 72/5/1 64/5/1 61/11/1 68/11/1
f 94/9/2 85/10/2 87/11/2 80/12/2 93/4/2 77/8/2
f 80/20/6 83/21/6 92/21/6 93/20/6
f 89/6/4 95/22/4 78/23/4 92/4/4 83/3/4 91/5/4
f 89/6/5 91/6/5 87/10/5 85/10/5
f 95/24/3 89/24/3 85/25/3 94/25/3
f 91/5/1 83/5/1 80/11/1 87/11/1
