# Blender 4.0.1
# www.blender.org
mtllib 90 degree turn arrows.mtl
o Arrow.003
v 0.630965 0.211344 -3.058259
v 0.630965 -0.070711 -2.956320
v -0.721607 0.848528 -2.956320
v -0.721607 -0.707895 -3.058259
v 0.630965 0.211344 -2.956320
v -0.721607 0.848528 -3.058259
v -0.721607 -0.707895 -2.956320
v 0.839053 0.070711 -2.956320
v 0.839053 0.069922 -3.058259
v -0.513519 0.989949 -2.956320
v -0.513519 -0.849316 -3.058259
v 0.839053 0.070711 -3.058259
v 0.839053 0.069922 -2.956320
v -0.513519 0.989949 -3.058259
v -0.513519 -0.849316 -2.956320
v 0.423456 0.070317 -2.956320
v 0.423456 0.070317 -3.058259
v 0.838473 0.070317 -3.058259
v 0.838473 0.070317 -2.956320
v -0.982698 0.211344 -2.964013
v -0.931728 -0.070711 -2.875730
v -2.103090 0.848528 -2.199444
v -2.154060 -0.707895 -2.287726
v -0.931728 0.211344 -2.875730
v -2.154060 0.848528 -2.287726
v -2.103090 -0.707895 -2.199444
v -0.751519 0.070711 -2.979774
v -0.802489 0.069922 -3.068057
v -1.922881 0.989949 -2.303488
v -1.973850 -0.849316 -2.391771
v -0.802489 0.070711 -3.068057
v -0.751519 0.069922 -2.979774
v -1.973850 0.989949 -2.391771
v -1.922881 -0.849316 -2.303488
v -1.111436 0.070317 -2.771976
v -1.162406 0.070317 -2.860258
v -0.802991 0.070317 -3.067767
v -0.752021 0.070317 -2.979484
v -2.333048 0.211344 -2.075561
v -2.244766 -0.070711 -2.024591
v -2.921052 0.848528 -0.853229
v -3.009334 -0.707895 -0.904199
v -2.244766 0.211344 -2.024591
v -3.009334 0.848528 -0.904199
v -2.921052 -0.707895 -0.853229
v -2.140722 0.070711 -2.204801
v -2.229004 0.069922 -2.255771
v -2.817008 0.989949 -1.033439
v -2.905290 -0.849316 -1.084409
v -2.229004 0.070711 -2.255771
v -2.140722 0.069922 -2.204801
v -2.905290 0.989949 -1.084409
v -2.817008 -0.849316 -1.033439
v -2.348520 0.070317 -1.844884
v -2.436802 0.070317 -1.895854
v -2.229294 0.070317 -2.255268
v -2.141011 0.070317 -2.204298
v -3.058259 0.211344 -0.630965
v -2.956320 -0.070711 -0.630965
v -2.956320 0.848528 0.721607
v -3.058259 -0.707895 0.721607
v -2.956320 0.211344 -0.630965
v -3.058259 0.848528 0.721607
v -2.956320 -0.707895 0.721607
v -2.956320 0.070711 -0.839053
v -3.058259 0.069922 -0.839053
v -2.956320 0.989949 0.513519
v -3.058259 -0.849316 0.513519
v -3.058259 0.070711 -0.839053
v -2.956320 0.069922 -0.839053
v -3.058259 0.989949 0.513519
v -2.956320 -0.849316 0.513519
v -2.956320 0.070317 -0.423456
v -3.058259 0.070317 -0.423456
v -3.058259 0.070317 -0.838473
v -2.956320 0.070317 -0.838473
vn -0.5621 -0.8271 -0.0000
vn -0.0000 -0.0000 -1.0000
vn 0.5621 0.8271 -0.0000
vn -0.0000 -0.0000 1.0000
vn 0.5621 -0.8271 -0.0000
vn -0.5621 0.8271 -0.0000
vn -0.4868 -0.8271 0.2810
vn -0.5000 -0.0000 -0.8660
vn 0.4868 0.8271 -0.2810
vn 0.5000 -0.0000 0.8660
vn 0.4867 -0.8271 -0.2810
vn -0.4868 0.8271 0.2810
vn 0.4868 -0.8271 -0.2810
vn -0.2810 -0.8271 0.4868
vn -0.8660 -0.0000 -0.5000
vn 0.2810 0.8271 -0.4868
vn 0.8660 -0.0000 0.5000
vn 0.2811 -0.8271 -0.4868
vn -0.2810 0.8271 0.4868
vn 0.2810 -0.8271 -0.4868
vn 0.2811 0.8271 -0.4868
vn -0.0000 -0.8271 0.5621
vn -1.0000 -0.0000 -0.0000
vn -0.0000 0.8271 -0.5621
vn 1.0000 -0.0000 -0.0000
vn -0.0000 -0.8271 -0.5621
vn -0.0000 0.8271 0.5621
vt 0.413354 0.000000
vt 0.625000 0.000000
vt 0.625000 0.250000
vt 0.413354 0.250000
vt 0.625000 0.500000
vt 0.375000 0.500000
vt 0.375000 0.499303
vt 0.413354 0.499303
vt 0.375000 0.750697
vt 0.375000 0.750000
vt 0.625000 0.750000
vt 0.625000 1.000000
vt 0.413354 1.000000
vt 0.413354 0.750697
vt 0.375000 1.000000
vt 0.374303 0.500000
vt 0.374303 0.750000
vt 0.875000 0.500000
vt 0.875000 0.750000
vt 0.375000 0.000000
vt 0.375000 0.250000
vt 0.375000 0.499303
vt 0.413354 0.499303
vt 0.125000 0.500000
vt 0.125000 0.750000
s 0
usemtl Material.003
f 16/1/1 3/2/1 6/3/1 17/4/1
f 6/3/2 14/5/2 12/6/2 18/7/2 1/8/2 17/4/2
f 12/6/3 14/5/3 10/11/3 8/10/3
f 8/10/4 10/11/4 3/12/4 16/13/4 5/14/4 19/9/4
f 16/13/4 2/15/4 19/9/4 5/14/4
f 18/16/5 12/6/5 8/10/5 19/17/5
f 14/5/6 6/18/6 3/19/6 10/11/6
f 35/1/7 22/2/7 25/3/7 36/4/7
f 25/3/8 33/5/8 31/6/8 37/7/8 20/8/8 36/4/8
f 31/6/9 33/5/9 29/11/9 27/10/9
f 27/10/10 29/11/10 22/12/10 35/13/10 24/14/10 38/9/10
f 35/13/10 21/15/10 38/9/10 24/14/10
f 37/16/11 31/6/11 27/10/11 38/17/11
f 33/5/12 25/18/12 22/19/12 29/11/12
f 54/1/14 41/2/14 44/3/14 55/4/14
f 44/3/15 52/5/15 50/6/15 56/7/15 39/8/15 55/4/15
f 50/6/16 52/5/16 48/11/16 46/10/16
f 46/10/17 48/11/17 41/12/17 54/13/17 43/14/17 57/9/17
f 54/13/17 40/15/17 57/9/17 43/14/17
f 56/16/18 50/6/18 46/10/18 57/17/18
f 52/5/19 44/18/19 41/19/19 48/11/19
f 73/1/22 60/2/22 63/3/22 74/4/22
f 63/3/23 71/5/23 69/6/23 75/7/23 58/8/23 74/4/23
f 69/6/24 71/5/24 67/11/24 65/10/24
f 65/10/25 67/11/25 60/12/25 73/13/25 62/14/25 76/9/25
f 73/13/25 59/15/25 76/9/25 62/14/25
f 75/16/26 69/6/26 65/10/26 76/17/26
f 71/5/27 63/18/27 60/19/27 67/11/27
usemtl 
f 18/9/2 9/10/2 11/11/2 4/12/2 17/4/2 1/8/2
f 4/20/6 7/21/6 16/21/6 17/20/6
f 13/6/4 19/22/4 2/23/4 16/4/4 7/3/4 15/5/4
f 13/6/5 15/6/5 11/10/5 9/10/5
f 19/24/3 13/24/3 9/25/3 18/25/3
f 15/5/1 7/5/1 4/11/1 11/11/1
f 37/9/8 28/10/8 30/11/8 23/12/8 36/4/8 20/8/8
f 23/20/12 26/21/12 35/21/12 36/20/12
f 32/6/10 38/22/10 21/23/10 35/4/10 26/3/10 34/5/10
f 32/6/13 34/6/13 30/10/13 28/10/13
f 38/24/9 32/24/9 28/25/9 37/25/9
f 34/5/7 26/5/7 23/11/7 30/11/7
f 56/9/15 47/10/15 49/11/15 42/12/15 55/4/15 39/8/15
f 42/20/19 45/21/19 54/21/19 55/20/19
f 51/6/17 57/22/17 40/23/17 54/4/17 45/3/17 53/5/17
f 51/6/20 53/6/20 49/10/20 47/10/20
f 57/24/21 51/24/21 47/25/21 56/25/21
f 53/5/14 45/5/14 42/11/14 49/11/14
f 75/9/23 66/10/23 68/11/23 61/12/23 74/4/23 58/8/23
f 61/20/27 64/21/27 73/21/27 74/20/27
f 70/6/25 76/22/25 59/23/25 73/4/25 64/3/25 72/5/25
f 70/6/26 72/6/26 68/10/26 66/10/26
f 76/24/24 70/24/24 66/25/24 75/25/24
f 72/5/22 64/5/22 61/11/22 68/11/22
o Arrow.001
v 2.030500 0.211344 -3.058259
v 2.030500 -0.070711 -2.956320
v 0.677928 0.848528 -2.956320
v 0.677928 -0.707895 -3.058259
v 2.030500 0.211344 -2.956320
v 0.677928 0.848528 -3.058259
v 0.677928 -0.707895 -2.956320
v 2.238588 0.070711 -2.956320
v 2.238588 0.069922 -3.058259
v 0.886016 0.989949 -2.956320
v 0.886016 -0.849316 -3.058259
v 2.238588 0.070711 -3.058259
v 2.238588 0.069922 -2.956320
v 0.886016 0.989949 -3.058259
v 0.886016 -0.849316 -2.956320
v 1.822992 0.070317 -2.956320
v 1.822992 0.070317 -3.058259
v 2.238008 0.070317 -3.058259
v 2.238008 0.070317 -2.956320
vn -0.5621 -0.8271 -0.0000
vn -0.0000 -0.0000 -1.0000
vn 0.5621 0.8271 -0.0000
vn -0.0000 -0.0000 1.0000
vn 0.5621 -0.8271 -0.0000
vn -0.5621 0.8271 -0.0000
vt 0.413354 0.000000
vt 0.625000 0.000000
vt 0.625000 0.250000
vt 0.413354 0.250000
vt 0.625000 0.500000
vt 0.375000 0.500000
vt 0.375000 0.499303
vt 0.413354 0.499303
vt 0.375000 0.750697
vt 0.375000 0.750000
vt 0.625000 0.750000
vt 0.625000 1.000000
vt 0.413354 1.000000
vt 0.413354 0.750697
vt 0.375000 1.000000
vt 0.374303 0.500000
vt 0.374303 0.750000
vt 0.875000 0.500000
vt 0.875000 0.750000
vt 0.375000 0.000000
vt 0.375000 0.250000
vt 0.375000 0.499303
vt 0.413354 0.499303
vt 0.125000 0.500000
vt 0.125000 0.750000
s 0
usemtl Material.001
f 92/26/28 79/27/28 82/28/28 93/29/28
f 82/28/29 90/30/29 88/31/29 94/32/29 77/33/29 93/29/29
f 88/31/30 90/30/30 86/36/30 84/35/30
f 84/35/31 86/36/31 79/37/31 92/38/31 81/39/31 95/34/31
f 92/38/31 78/40/31 95/34/31 81/39/31
f 94/41/32 88/31/32 84/35/32 95/42/32
f 90/30/33 82/43/33 79/44/33 86/36/33
usemtl 
f 94/34/29 85/35/29 87/36/29 80/37/29 93/29/29 77/33/29
f 80/45/33 83/46/33 92/46/33 93/45/33
f 89/31/31 95/47/31 78/48/31 92/29/31 83/28/31 91/30/31
f 89/31/32 91/31/32 87/35/32 85/35/32
f 95/49/30 89/49/30 85/50/30 94/50/30
f 91/30/28 83/30/28 80/36/28 87/36/28
o Arrow.002
v -3.058259 0.211344 0.761135
v -2.956320 -0.070711 0.761135
v -2.956320 0.848528 2.113707
v -3.058259 -0.707895 2.113707
v -2.956320 0.211344 0.761135
v -3.058259 0.848528 2.113707
v -2.956320 -0.707895 2.113707
v -2.956320 0.070711 0.553047
v -3.058259 0.069922 0.553047
v -2.956320 0.989949 1.905619
v -3.058259 -0.849316 1.905619
v -3.058259 0.070711 0.553047
v -2.956320 0.069922 0.553047
v -3.058259 0.989949 1.905619
v -2.956320 -0.849316 1.905619
v -2.956320 0.070317 0.968643
v -3.058259 0.070317 0.968643
v -3.058259 0.070317 0.553627
v -2.956320 0.070317 0.553627
vn -0.0000 -0.8271 0.5621
vn -1.0000 -0.0000 -0.0000
vn -0.0000 0.8271 -0.5621
vn 1.0000 -0.0000 -0.0000
vn -0.0000 -0.8271 -0.5621
vn -0.0000 0.8271 0.5621
vt 0.413354 0.000000
vt 0.625000 0.000000
vt 0.625000 0.250000
vt 0.413354 0.250000
vt 0.625000 0.500000
vt 0.375000 0.500000
vt 0.375000 0.499303
vt 0.413354 0.499303
vt 0.375000 0.750697
vt 0.375000 0.750000
vt 0.625000 0.750000
vt 0.625000 1.000000
vt 0.413354 1.000000
vt 0.413354 0.750697
vt 0.375000 1.000000
vt 0.374303 0.500000
vt 0.374303 0.750000
vt 0.875000 0.500000
vt 0.875000 0.750000
vt 0.375000 0.000000
vt 0.375000 0.250000
vt 0.375000 0.499303
vt 0.413354 0.499303
vt 0.125000 0.500000
vt 0.125000 0.750000
s 0
usemtl Material.002
f 111/51/34 98/52/34 101/53/34 112/54/34
f 101/53/35 109/55/35 107/56/35 113/57/35 96/58/35 112/54/35
f 107/56/36 109/55/36 105/61/36 103/60/36
f 103/60/37 105/61/37 98/62/37 111/63/37 100/64/37 114/59/37
f 111/63/37 97/65/37 114/59/37 100/64/37
f 113/66/38 107/56/38 103/60/38 114/67/38
f 109/55/39 101/68/39 98/69/39 105/61/39
usemtl 
f 113/59/35 104/60/35 106/61/35 99/62/35 112/54/35 96/58/35
f 99/70/39 102/71/39 111/71/39 112/70/39
f 108/56/37 114/72/37 97/73/37 111/54/37 102/53/37 110/55/37
f 108/56/38 110/56/38 106/60/38 104/60/38
f 114/74/36 108/74/36 104/75/36 113/75/36
f 110/55/34 102/55/34 99/61/34 106/61/34
