# Blender 4.0.1
# www.blender.org
mtllib Rätvinklig_triangel_9x9x10.mtl
o Rätvinklig_triangel_9x9x10
v 0.000000 0.000000 -9.000000
v 0.000000 10.000000 -9.000000
v 0.000000 0.000000 0.000000
v 0.000000 10.000000 0.000000
v -9.000000 0.000000 0.000000
v -9.000000 10.000000 0.000000
vn 1.0000 -0.0000 -0.0000
vn -0.0000 -0.0000 1.0000
vn -0.7071 -0.0000 -0.7071
vn -0.0000 -1.0000 -0.0000
vn -0.0000 1.0000 -0.0000
s 0
f 1//1 2//1 4//1 3//1
f 3//2 4//2 6//2 5//2
f 5//3 6//3 2//3 1//3
f 3//4 5//4 1//4
f 6//5 4//5 2//5
